<svg width="720" height="540" viewBox="0 0 720 540" fill="none" xmlns="http://www.w3.org/2000/svg">
  <rect width="720" height="540" rx="28" fill="#F7F7F4"/>
  <rect x="28" y="28" width="664" height="484" rx="20" fill="#FFFFFF" stroke="#D8D8D2"/>
  <text x="64" y="82" fill="#111111" font-family="Inter, Arial, sans-serif" font-size="26" font-weight="650">Usage logs</text>
  <text x="64" y="113" fill="#62625A" font-family="Inter, Arial, sans-serif" font-size="15">Cost, latency, token flow, and request traces.</text>
  <rect x="64" y="152" width="592" height="148" rx="18" fill="#111111"/>
  <path d="M98 254C142 206 176 236 216 206C260 174 294 214 334 184C380 150 418 198 458 164C506 124 552 168 622 118" stroke="#FFFFFF" stroke-width="5" stroke-linecap="round"/>
  <g fill="#F7F7F4" font-family="Inter, Arial, sans-serif">
    <text x="96" y="194" font-size="14">today</text>
    <text x="96" y="232" font-size="42" font-weight="650">$428.17</text>
  </g>
  <g font-family="Inter, Arial, sans-serif" font-size="14">
    <rect x="64" y="330" width="592" height="48" rx="14" fill="#F2F2EE" stroke="#D8D8D2"/>
    <text x="88" y="360" fill="#111111" font-weight="650">chat.completions</text>
    <text x="286" y="360" fill="#62625A">gpt-4.1</text>
    <text x="454" y="360" fill="#62625A">1.8k tokens</text>
    <text x="592" y="360" fill="#111111">$0.18</text>
    <rect x="64" y="394" width="592" height="48" rx="14" fill="#FFFFFF" stroke="#D8D8D2"/>
    <text x="88" y="424" fill="#111111" font-weight="650">responses</text>
    <text x="286" y="424" fill="#62625A">claude</text>
    <text x="454" y="424" fill="#62625A">3.2k tokens</text>
    <text x="592" y="424" fill="#111111">$0.41</text>
    <rect x="64" y="458" width="592" height="48" rx="14" fill="#FFFFFF" stroke="#D8D8D2"/>
    <text x="88" y="488" fill="#111111" font-weight="650">embeddings</text>
    <text x="286" y="488" fill="#62625A">text-large</text>
    <text x="454" y="488" fill="#62625A">44k tokens</text>
    <text x="592" y="488" fill="#111111">$0.07</text>
  </g>
</svg>
